<?xml version="1.0" encoding="UTF-8"?>
<svg version="1.1" xmlns="http://www.w3.org/2000/svg" width="500" height="500">
<path d="M0 0 C0 0.66 0 1.32 0 2 C0.86564575 2.17982422 0.86564575 2.17982422 1.7487793 2.36328125 C4.11527841 3.0326045 5.90089692 3.9457065 8.01953125 5.1875 C8.7878125 5.63496582 9.55609375 6.08243164 10.34765625 6.54345703 C11.56775391 7.2644458 11.56775391 7.2644458 12.8125 8 C13.65039062 8.48968262 14.48828125 8.97936523 15.3515625 9.48388672 C21.3903609 13.02217356 27.3998212 16.61072424 33.36645508 20.26953125 C35.90234142 21.81221038 38.17099732 23.05699911 41 24 C41 24.66 41 25.32 41 26 C41.55558594 26.10570312 42.11117187 26.21140625 42.68359375 26.3203125 C45.46068554 27.13517586 47.57984106 28.38183247 50.0625 29.875 C51.11308594 30.50019531 52.16367187 31.12539062 53.24609375 31.76953125 C53.83503418 32.12096191 54.42397461 32.47239258 55.03076172 32.83447266 C59.65333507 35.57042173 64.31888227 38.2335508 68.97290039 40.91552734 C74.68565057 44.21660213 80.34888292 47.59468674 86 51 C87.72504458 52.03551589 89.45030583 53.07067092 91.17578125 54.10546875 C96.1171875 57.0703125 101.05859375 60.03515625 106 63 C106.8595932 63.40973053 107.7191864 63.81946106 108.60482788 64.24160767 C111 66 111 66 111.60127258 68.48674011 C111.584618 69.96899834 111.584618 69.96899834 111.56762695 71.48120117 C111.5672493 72.60213669 111.56687164 73.7230722 111.56648254 74.87797546 C111.54067612 76.08742325 111.51486969 77.29687103 111.48828125 78.54296875 C111.47766914 80.40106926 111.47766914 80.40106926 111.46684265 82.29670715 C111.44357641 85.58683916 111.39867166 88.875747 111.34332275 92.16546631 C111.2921337 95.52356994 111.26932959 98.88185288 111.24414062 102.24023438 C111.18895341 108.82730291 111.10523618 115.41355131 111 122 C107.46725045 120.60760494 104.07572818 119.09170228 100.6875 117.375 C99.80449219 116.92898437 98.92148437 116.48296875 98.01171875 116.0234375 C97.34785156 115.68570313 96.68398438 115.34796875 96 115 C96 114.34 96 113.68 96 113 C95.34 113 94.68 113 94 113 C93.67 100.79 93.34 88.58 93 76 C90.03 75.01 90.03 75.01 87 74 C84.58273896 72.77798981 82.32600366 71.39560219 80 70 C80 69.34 80 68.68 80 68 C79.46503906 67.9071875 78.93007813 67.814375 78.37890625 67.71875 C75.24160551 66.77086275 72.73931524 65.19428233 69.9375 63.5 C65.63135264 60.89857559 65.63135264 60.89857559 61 59 C61 58.34 61 57.68 61 57 C60.46761719 56.90589844 59.93523437 56.81179687 59.38671875 56.71484375 C56.22300976 55.76728443 53.6669099 54.22562042 50.8125 52.5625 C50.20591553 52.21050537 49.59933105 51.85851074 48.97436523 51.49584961 C46.97971725 50.33594728 44.98968409 49.16839409 43 48 C41.60942632 47.18741217 40.21880065 46.37491331 38.828125 45.5625 C32.59018552 41.91055084 26.36859352 38.23271308 20.17919922 34.49902344 C18.33889583 33.39089411 16.49400236 32.29074459 14.6484375 31.19140625 C12.13178211 29.69049303 9.64382098 28.15086997 7.1640625 26.58984375 C5.92221115 25.83017937 4.68003551 25.07104482 3.4375 24.3125 C2.34308594 23.62800781 1.24867188 22.94351563 0.12109375 22.23828125 C-2.96075362 20.68433808 -2.96075362 20.68433808 -6.21484375 21.66796875 C-9.11398414 22.97385178 -9.11398414 22.97385178 -12 25 C-12.99 25 -13.98 25 -15 25 C-15 25.66 -15 26.32 -15 27 C-15.89525391 27.47566406 -15.89525391 27.47566406 -16.80859375 27.9609375 C-18.66675469 28.96042377 -20.50672511 29.9940829 -22.33265686 31.05130005 C-24.92700727 32.50421473 -27.51339757 33.5942495 -30.30125427 34.62277222 C-35.21526299 36.63820195 -39.59645274 38.81757867 -43 43 C-46.09322218 51.17228232 -44.97128753 60.56882253 -44.66015625 69.1328125 C-44.6284212 71.69676728 -44.60423547 74.26082564 -44.58726501 76.82492065 C-44.52915855 82.86596627 -44.39547778 88.90067557 -44.22432369 94.93918884 C-44.03360724 101.81882769 -43.94067162 108.69873412 -43.85550129 115.58036256 C-43.67829449 129.72316271 -43.37973449 143.86129056 -43 158 C-44.32 158 -45.64 158 -47 158 C-47 157.34 -47 156.68 -47 156 C-47.56368286 155.87087723 -48.12736572 155.74175446 -48.70812988 155.60871887 C-53.06394325 154.45181832 -56.71053937 153.1856985 -60 150 C-61.40536621 145.64844378 -61.30236164 141.37577678 -61.28125 136.83203125 C-61.30685147 135.49461493 -61.33643344 134.15726969 -61.36972046 132.82002258 C-61.44826488 129.22787996 -61.47274097 125.63724868 -61.48641205 122.04434967 C-61.50909501 118.31862609 -61.57899874 114.59381627 -61.64501953 110.86865234 C-61.73462247 105.5793265 -61.80785535 100.29023442 -61.86089516 95.0004158 C-61.95022688 86.20979606 -62.16841454 77.43107734 -62.4609375 68.64453125 C-62.56668163 65.21801025 -62.67054541 61.79143804 -62.77368164 58.36483765 C-62.84101606 56.21169787 -62.91341284 54.05871021 -62.9909668 51.90591431 C-63.09419302 48.94004504 -63.17160129 45.9746118 -63.2421875 43.0078125 C-63.27831146 42.14424637 -63.31443542 41.28068024 -63.35165405 40.39094543 C-63.45361197 34.63179122 -63.45361197 34.63179122 -61.29077148 31.61938477 C-58.94521195 29.96126941 -56.62259345 28.46782629 -54.10546875 27.08203125 C-53.15736328 26.55448242 -52.20925781 26.02693359 -51.23242188 25.48339844 C-50.22759766 24.93200195 -49.22277344 24.38060547 -48.1875 23.8125 C-46.09682566 22.64862616 -44.00698151 21.4832598 -41.91796875 20.31640625 C-40.90138184 19.74937988 -39.88479492 19.18235352 -38.83740234 18.59814453 C-35.18742021 16.54232083 -31.58425525 14.41789632 -28 12.25 C-27.12939941 11.72780884 -27.12939941 11.72780884 -26.24121094 11.19506836 C-23.11828363 9.31367581 -20.03214374 7.38490684 -16.96484375 5.4140625 C-16.29130859 4.98963867 -15.61777344 4.56521484 -14.92382812 4.12792969 C-13.63869476 3.31729738 -12.36191119 2.493207 -11.09570312 1.65332031 C-7.01766426 -0.8982891 -4.62521342 -1.33758074 0 0 Z " fill="#F4F4F4" transform="translate(254,117)"/>
<path d="M0 0 C0.11608726 3.27053517 0.18720711 6.5405418 0.25 9.8125 C0.30027344 11.2056543 0.30027344 11.2056543 0.3515625 12.62695312 C0.36445313 13.51962891 0.37734375 14.41230469 0.390625 15.33203125 C0.41157227 16.15421143 0.43251953 16.9763916 0.45410156 17.82348633 C0 20 0 20 -1.87597656 21.70678711 C-4.21689132 23.13205441 -6.57786191 24.46684351 -9 25.75 C-14.28136862 28.57905076 -19.43106957 31.59447872 -24.56640625 34.6796875 C-27 36 -27 36 -29 36 C-29 69.66 -29 103.32 -29 138 C-27.35 138.66 -25.7 139.32 -24 140 C-22.32066563 140.87897147 -20.65708207 141.78849103 -19.0078125 142.72265625 C-18.06244629 143.25697266 -17.11708008 143.79128906 -16.14306641 144.34179688 C-15.14710449 144.90962891 -14.15114258 145.47746094 -13.125 146.0625 C-12.09938965 146.64451172 -11.0737793 147.22652344 -10.01708984 147.82617188 C-4.17873107 151.15085648 1.62469171 154.52533599 7.375 158 C8.26674927 158.53741821 8.26674927 158.53741821 9.17651367 159.08569336 C11.712042 160.61497347 14.24409187 162.1494159 16.76953125 163.6953125 C17.56746094 164.16710937 18.36539063 164.63890625 19.1875 165.125 C19.84105469 165.51945313 20.49460937 165.91390625 21.16796875 166.3203125 C23.61909765 167.22968655 24.56580545 166.95502158 27 166 C30.12933305 164.24841358 33.16722292 162.37316466 36.22265625 160.49609375 C39 159 39 159 42 159 C42 158.34 42 157.68 42 157 C42.6084375 156.67128906 43.216875 156.34257812 43.84375 156.00390625 C69.37023679 142.25185733 69.37023679 142.25185733 94 127 C94.99 127 95.98 127 97 127 C97 126.34 97 125.68 97 125 C98.32 124.67 99.64 124.34 101 124 C102.50317305 130.63689117 103.166007 137.28439008 102 144 C99.4416455 147.07216628 96.65037598 148.48303912 93 150 C92.30390625 150.37511719 91.6078125 150.75023437 90.890625 151.13671875 C89 152 89 152 86 152 C86 152.66 86 153.32 86 154 C85.10474609 154.47566406 85.10474609 154.47566406 84.19140625 154.9609375 C78.19779987 158.1848387 72.30093141 161.54597642 66.4375 165 C65.706521 165.43022461 64.97554199 165.86044922 64.22241211 166.30371094 C59.40144909 169.15021996 54.61858896 172.05238815 49.8828125 175.0390625 C48 176 48 176 45 176 C45 176.66 45 177.32 45 178 C42.46195322 179.46495337 39.91990283 180.92204322 37.375 182.375 C36.66214844 182.7875 35.94929688 183.2 35.21484375 183.625 C26.74861825 188.4406512 26.74861825 188.4406512 23 189 C20.04805035 187.96639993 17.51451527 186.41010329 14.875 184.75 C13.47679223 183.91107534 12.07836164 183.07252189 10.6796875 182.234375 C9.76292236 181.66541504 9.76292236 181.66541504 8.82763672 181.08496094 C6.92693085 179.95662312 4.98740257 178.96601471 3 178 C3 177.34 3 176.68 3 176 C2.44892578 175.89421631 1.89785156 175.78843262 1.33007812 175.67944336 C-1.48745959 174.85785834 -3.73559707 173.59068886 -6.28125 172.12890625 C-7.28800781 171.55462891 -8.29476562 170.98035156 -9.33203125 170.38867188 C-10.37746094 169.78603516 -11.42289063 169.18339844 -12.5 168.5625 C-14.57245775 167.37550046 -16.6453569 166.18927119 -18.71875 165.00390625 C-19.63591797 164.47611572 -20.55308594 163.9483252 -21.49804688 163.40454102 C-23.63929485 162.20249187 -25.79236224 161.07380275 -28 160 C-28 159.34 -28 158.68 -28 158 C-28.55558594 157.896875 -29.11117187 157.79375 -29.68359375 157.6875 C-32.47821321 156.85806825 -34.5953498 155.54801581 -37.0625 154 C-39.76080698 152.31203653 -41.97148084 151.00950639 -45 150 C-46.2336477 147.5327046 -46.1383797 145.8883109 -46.15821838 143.12789917 C-46.17290161 141.58398499 -46.17290161 141.58398499 -46.18788147 140.00888062 C-46.19651466 138.30848129 -46.19651466 138.30848129 -46.20532227 136.57373047 C-46.21522186 135.38350281 -46.22512146 134.19327515 -46.23532104 132.96697998 C-46.26154205 129.69862028 -46.28339039 126.43026587 -46.30332303 123.16186285 C-46.3251681 119.74786576 -46.35256401 116.33391341 -46.37937927 112.91995239 C-46.4293262 106.45308783 -46.47425759 99.98619846 -46.51740164 93.51928532 C-46.56675694 86.15780177 -46.62168139 78.79636309 -46.67708123 71.43492293 C-46.79093197 56.28999044 -46.89776426 41.14501569 -47 26 C-46.34 26 -45.68 26 -45 26 C-45 25.34 -45 24.68 -45 24 C-43.38738281 23.22269531 -43.38738281 23.22269531 -41.7421875 22.4296875 C-36.05534269 19.58501414 -30.60405601 16.34676702 -25.125 13.125 C-24.10019531 12.52558594 -23.07539063 11.92617187 -22.01953125 11.30859375 C-16.04099295 7.81126892 -16.04099295 7.81126892 -10.12011719 4.21777344 C-8.78835449 3.3945459 -8.78835449 3.3945459 -7.4296875 2.5546875 C-6.64577637 2.06210449 -5.86186523 1.56952148 -5.05419922 1.06201172 C-3 0 -3 0 0 0 Z " fill="#F3F3F3" transform="translate(181,158)"/>
<path d="M0 0 C4.46472722 1.48824241 7.44565476 2.67432699 11.3125 5.0625 C12.17488281 5.58972656 13.03726563 6.11695313 13.92578125 6.66015625 C16 8 16 8 17 9 C17.15515596 11.64339565 17.24658856 14.26328913 17.29711914 16.90942383 C17.31677231 17.73885498 17.33642548 18.56828613 17.35667419 19.42285156 C17.42088215 22.18415993 17.47807676 24.94556703 17.53515625 27.70703125 C17.57818088 29.62742468 17.62159751 31.54780936 17.66539001 33.46818542 C17.75652223 37.50762155 17.84447581 41.54710978 17.92993164 45.58666992 C18.03890012 50.73656653 18.1531491 55.8863269 18.26950932 61.03606129 C18.38072964 65.96801096 18.48930697 70.90001781 18.59765625 75.83203125 C18.61828691 76.7618815 18.63891758 77.69173176 18.66017342 78.64975929 C18.75493332 82.95665546 18.84290454 87.26330767 18.91116333 91.57070923 C18.95647123 94.31943304 19.05165855 97.04690451 19.18722534 99.79428101 C19.25008224 101.40177719 19.25008224 101.40177719 19.31420898 103.04174805 C19.36423569 103.93290817 19.41426239 104.8240683 19.46580505 105.74223328 C19 108 19 108 16.84046936 109.97737122 C14.29849742 111.54724659 11.72095509 112.77170637 9 114 C7.8353093 114.76365287 6.68514474 115.55077981 5.5625 116.375 C3 118 3 118 0 118 C0 118.66 0 119.32 0 120 C-2.64738916 121.4606285 -3.89448334 122 -7 122 C-7 122.66 -7 123.32 -7 124 C-7.65484375 124.35191406 -8.3096875 124.70382812 -8.984375 125.06640625 C-14.09305093 127.82999789 -19.16495276 130.6449439 -24.1875 133.5625 C-25.18265625 134.14 -26.1778125 134.7175 -27.203125 135.3125 C-30.30242909 137.18247118 -33.26871129 139.20225059 -36.18359375 141.34765625 C-38 142 -38 142 -40.40234375 141.3046875 C-43.04347298 139.97816545 -45.5861477 138.57618891 -48.125 137.0625 C-52.0425389 134.73646128 -55.9714901 132.44183084 -59.9375 130.19921875 C-61.22116455 129.46916626 -61.22116455 129.46916626 -62.53076172 128.72436523 C-64.24300311 127.7512591 -65.9581289 126.78320864 -67.67626953 125.82055664 C-68.46630371 125.3693042 -69.25633789 124.91805176 -70.0703125 124.453125 C-71.13403076 123.85226074 -71.13403076 123.85226074 -72.21923828 123.23925781 C-74 122 -74 122 -76 119 C-73.54220129 117.51993873 -71.08378912 116.04091426 -68.625 114.5625 C-67.92632812 114.14162109 -67.22765625 113.72074219 -66.5078125 113.28710938 C-65.8375 112.88427734 -65.1671875 112.48144531 -64.4765625 112.06640625 C-63.85861816 111.69459229 -63.24067383 111.32277832 -62.60400391 110.93969727 C-61.42685882 110.250073 -60.22024659 109.6101233 -59 109 C-56.46668755 110.17469757 -54.06329576 111.40154856 -51.625 112.75 C-50.95210937 113.1109375 -50.27921875 113.471875 -49.5859375 113.84375 C-46.7628283 115.37756523 -44.26508087 116.7684131 -41.8359375 118.890625 C-41.23007813 119.25671875 -40.62421875 119.6228125 -40 120 C-32.47737398 118.05013533 -25.37297747 112.36045827 -19 108 C-19.99 107.505 -19.99 107.505 -21 107 C-21 106.34 -21 105.68 -21 105 C-21.5887793 104.87310791 -22.17755859 104.74621582 -22.78417969 104.61547852 C-26.23913366 103.65581137 -29.18051444 101.74363022 -32.25 99.9375 C-32.8996875 99.56044922 -33.549375 99.18339844 -34.21875 98.79492188 C-35.81505091 97.86765885 -37.40787529 96.93441544 -39 96 C-39 95.01 -39 94.02 -39 93 C-36.64976428 91.21489729 -34.39210437 89.69823399 -31.875 88.1875 C-31.20984375 87.75501953 -30.5446875 87.32253906 -29.859375 86.87695312 C-26.57720395 84.88512579 -24.87220669 83.86860263 -20.9921875 84.453125 C-17.31535114 86.3539438 -13.76443294 88.37719936 -10.25 90.5625 C-5.70090796 93.41605733 -5.70090796 93.41605733 -1 96 C-0.67 64.32 -0.34 32.64 0 0 Z " fill="#F3F3F3" transform="translate(289,233)"/>
<path d="M0 0 C1.32 0 2.64 0 4 0 C4 0.66 4 1.32 4 2 C4.58265625 2.12503906 5.1653125 2.25007812 5.765625 2.37890625 C13.40524262 4.50250625 20.33936539 10.07615953 26.99536133 14.27514648 C31.58944456 17.15883202 36.24618823 19.83349719 41.03515625 22.3828125 C50.18196503 27.37198092 59.10209068 32.79428096 67.9375 38.3125 C73.14507017 41.54591574 78.45285933 44.39547345 84 47 C84 47.66 84 48.32 84 49 C85.11375 49.185625 85.11375 49.185625 86.25 49.375 C88.80141485 49.95486701 90.7267573 50.73708739 93 52 C93 52.66 93 53.32 93 54 C93.804375 54.1546875 93.804375 54.1546875 94.625 54.3125 C97.62502044 55.18092697 100.2379535 56.55620296 103 58 C103 58.66 103 59.32 103 60 C103.5775 60.103125 104.155 60.20625 104.75 60.3125 C107.45482684 61.13897487 108.93944392 62.05346823 111 64 C111.54830933 66.43963623 111.54830933 66.43963623 111.61279297 69.37011719 C111.64476776 70.46845886 111.67674255 71.56680054 111.70968628 72.69842529 C111.72041168 73.8859137 111.73113708 75.0734021 111.7421875 76.296875 C111.76927292 78.13007294 111.76927292 78.13007294 111.79690552 80.00030518 C111.8259473 82.58929624 111.84369317 85.1784347 111.85107422 87.76757812 C111.8748353 91.72258551 111.97310779 95.67131484 112.07421875 99.625 C112.09315152 102.14059453 112.10761955 104.65622742 112.1171875 107.171875 C112.15625214 108.35126648 112.19531677 109.53065796 112.23556519 110.74578857 C112.14740331 118.8033605 112.14740331 118.8033605 108.81311035 122.2807312 C106.27801564 124.07640885 103.75814483 125.57652392 101 127 C99.92234375 127.65226562 98.8446875 128.30453125 97.734375 128.9765625 C96.74953125 129.52054688 95.7646875 130.06453125 94.75 130.625 C90.21988189 133.150757 85.73506088 135.73990453 81.28125 138.3984375 C79.78899902 139.28861572 79.78899902 139.28861572 78.26660156 140.19677734 C76.27182865 141.3891853 74.27895289 142.58477334 72.28808594 143.78369141 C71.37317383 144.32944824 70.45826172 144.87520508 69.515625 145.4375 C68.28247559 146.17806641 68.28247559 146.17806641 67.02441406 146.93359375 C65 148 65 148 63 148 C61.06408094 141.0255563 59.78104468 133.72835133 63 127 C70.44402406 120.03760276 80.0719647 115.64997631 89.22436523 111.34082031 C91.84895753 110.26075422 91.84895753 110.26075422 93 109 C93.38805363 104.24763656 93.48515356 99.4941575 93.56982422 94.7277832 C93.60641535 93.12603051 93.66092069 91.52458048 93.73388672 89.92407227 C94.46477403 80.82607391 94.46477403 80.82607391 91.23120117 72.73779297 C88.88509852 71.15055315 86.62008068 70.06657009 84 69 C82.64765457 68.23601059 81.30446484 67.45550205 79.97265625 66.65625 C78.67109763 65.93419719 77.36768811 65.21547125 76.0625 64.5 C70.83376284 61.59723294 65.66430509 58.62983468 60.55078125 55.52734375 C51.50593578 50.11151745 42.27988087 44.99977255 33 40 C33 39.34 33 38.68 33 38 C32.45472656 37.90074219 31.90945313 37.80148438 31.34765625 37.69921875 C28.39156624 36.81878595 26.07867083 35.40564299 23.4375 33.8125 C18.54408239 30.89676399 13.60176065 28.12662224 8.5703125 25.45703125 C7.29800781 24.73580078 7.29800781 24.73580078 6 24 C4.91203125 23.49339844 3.8240625 22.98679688 2.703125 22.46484375 C0 20 0 20 -0.47509766 17.8059082 C-0.59187752 15.09656386 -0.52289617 12.45763748 -0.375 9.75 C-0.34792969 8.81414062 -0.32085937 7.87828125 -0.29296875 6.9140625 C-0.22234523 4.6070276 -0.12380579 2.30469231 0 0 Z " fill="#F2F2F2" transform="translate(254,186)"/>
<path d="M0 0 C1.32 0 2.64 0 4 0 C4.02895976 3.12498063 4.04678483 6.2499269 4.0625 9.375 C4.07087891 10.26445312 4.07925781 11.15390625 4.08789062 12.0703125 C4.09272461 13.34648437 4.09272461 13.34648437 4.09765625 14.6484375 C4.10551147 15.82672119 4.10551147 15.82672119 4.11352539 17.02880859 C4 19 4 19 3 21 C2.34 21 1.68 21 1 21 C1 39.81 1 58.62 1 78 C2.98 78.66 4.96 79.32 7 80 C7 80.66 7 81.32 7 82 C7.55558594 82.11085938 8.11117187 82.22171875 8.68359375 82.3359375 C16.44832041 84.5619131 23.52756688 89.92893731 30.24609375 94.27734375 C33.83682735 96.52346222 37.53962043 98.51568686 41.2734375 100.51171875 C45.5971315 102.87178668 49.79867817 105.42999402 54 108 C52.66142851 112.01571446 50.87759462 112.54576894 47.25 114.625 C46.20328125 115.23601562 45.1565625 115.84703125 44.078125 116.4765625 C39.10278494 118.938977 39.10278494 118.938977 36 119 C33.31987083 117.83159062 30.94667947 116.64563674 28.4375 115.1875 C27.12378582 114.45166596 25.8099862 113.71598442 24.49609375 112.98046875 C23.88878418 112.63419434 23.28147461 112.28791992 22.65576172 111.93115234 C20.80116526 110.88818111 18.91745976 109.92213714 17 109 C17 108.34 17 107.68 17 107 C16.43410156 106.89042969 15.86820313 106.78085937 15.28515625 106.66796875 C12.66745673 105.90279504 10.74663656 104.76189214 8.4375 103.3125 C4.02049915 100.590848 -0.47189929 98.0958531 -5.06640625 95.6875 C-6.03449219 95.130625 -7.00257813 94.57375 -8 94 C-8.73035965 93.71225708 -9.4607193 93.42451416 -10.21321106 93.12805176 C-13.13108375 91.71828657 -14.89352807 90.48565279 -17 88 C-18.40475299 82.28519974 -18.26852282 76.63818252 -18.1953125 70.78125 C-18.20138014 69.07782877 -18.21011901 67.37441515 -18.22140503 65.67102051 C-18.23465222 62.10625794 -18.21546834 58.54352931 -18.17333984 54.97900391 C-18.12204897 50.41788129 -18.15158698 45.86152312 -18.20549202 41.30057526 C-18.23807638 37.78456968 -18.22763779 34.26968697 -18.20434189 30.75364685 C-18.1983546 29.07278371 -18.20564897 27.39181733 -18.22665787 25.71107483 C-18.35466727 12.59235234 -18.35466727 12.59235234 -15.01751709 8.66967773 C-12.7228664 7.1205984 -10.56079037 6.03274178 -8 5 C-6.576875 4.071875 -6.576875 4.071875 -5.125 3.125 C-3 2 -3 2 0 2 C0 1.34 0 0.68 0 0 Z " fill="#F4F4F4" transform="translate(184,192)"/>
<path d="M0 0 C2.6810664 1.46692041 5.33971044 2.94219902 7.96484375 4.5078125 C11.893803 6.83429697 15.83380988 9.13197228 19.80957031 11.37695312 C24.69150234 14.13525811 29.50458906 16.96157941 34.21484375 20.0078125 C38.58529467 22.83425011 43.05811327 25.33654802 47.6484375 27.78515625 C50.82516954 29.54809167 53.88843636 31.45043265 56.96484375 33.3828125 C62.12400678 36.60498345 67.36168079 39.38786002 72.87109375 41.9609375 C73.74765625 42.43015625 74.62421875 42.899375 75.52734375 43.3828125 C76.45933594 43.8778125 77.39132812 44.3728125 78.3515625 44.8828125 C81.82604737 48.87503929 81.06039312 53.03642562 80.83984375 58.1328125 C80.81728516 59.11636719 80.79472656 60.09992188 80.77148438 61.11328125 C80.7126318 63.5380072 80.63047806 65.95963233 80.52734375 68.3828125 C77.08690564 67.74255718 74.31898398 66.95130143 71.21484375 65.3203125 C70.51746094 64.95808594 69.82007813 64.59585938 69.1015625 64.22265625 C68.58207031 63.94550781 68.06257813 63.66835937 67.52734375 63.3828125 C67.52734375 62.7228125 67.52734375 62.0628125 67.52734375 61.3828125 C65.54734375 60.8878125 65.54734375 60.8878125 63.52734375 60.3828125 C63.52734375 59.3928125 63.52734375 58.4028125 63.52734375 57.3828125 C62.95636963 57.26599121 62.38539551 57.14916992 61.79711914 57.02880859 C59.32789096 56.32604665 57.43108439 55.33305247 55.2109375 54.046875 C54.37353027 53.56500732 53.53612305 53.08313965 52.67333984 52.58666992 C51.77953613 52.06564697 50.88573242 51.54462402 49.96484375 51.0078125 C49.03752441 50.47196533 48.11020508 49.93611816 47.15478516 49.3840332 C45.22719934 48.26957089 43.30077918 47.15309019 41.37548828 46.03466797 C38.68987564 44.47707709 35.99862389 42.92985735 33.3046875 41.38671875 C26.62452415 37.55260042 19.97048165 33.73326979 13.52734375 29.5078125 C12.68429687 28.98574219 11.84125 28.46367187 10.97265625 27.92578125 C8.52734375 26.3828125 8.52734375 26.3828125 6.01953125 24.49609375 C2.97849221 22.54892099 1.14787973 21.65300175 -2.47265625 21.3828125 C-7.93588154 23.21125292 -12.68340767 26.68910457 -17.38330078 29.94189453 C-19.91221142 31.68595045 -22.48985009 33.33600265 -25.09814453 34.95825195 C-26.68926398 35.94815391 -28.2632468 36.96544863 -29.8359375 37.984375 C-32.47265625 39.3828125 -32.47265625 39.3828125 -36.47265625 39.3828125 C-36.47265625 32.7828125 -36.47265625 26.1828125 -36.47265625 19.3828125 C-33.87390625 17.8978125 -31.27515625 16.4128125 -28.59765625 14.8828125 C-27.37199951 14.17801758 -27.37199951 14.17801758 -26.12158203 13.45898438 C-25.47688965 13.09353516 -24.83219727 12.72808594 -24.16796875 12.3515625 C-23.50812988 11.97451172 -22.84829102 11.59746094 -22.16845703 11.20898438 C-20.47265625 10.3828125 -20.47265625 10.3828125 -18.47265625 10.3828125 C-18.47265625 9.7228125 -18.47265625 9.0628125 -18.47265625 8.3828125 C-17.73660156 7.98449219 -17.00054687 7.58617187 -16.2421875 7.17578125 C-15.26636719 6.64597656 -14.29054687 6.11617187 -13.28515625 5.5703125 C-11.84076172 4.78720703 -11.84076172 4.78720703 -10.3671875 3.98828125 C-7.46431295 2.45020638 -7.46431295 2.45020638 -4.921875 0.55859375 C-2.47265625 -0.6171875 -2.47265625 -0.6171875 0 0 Z " fill="#F3F3F3" transform="translate(251.47265625,155.6171875)"/>
<path d="M0 0 C4.1201119 1.60380195 7.92831916 3.50635591 11.8125 5.625 C12.40998047 5.94984375 13.00746094 6.2746875 13.62304688 6.609375 C15.08337135 7.40379151 16.54187491 8.20155376 18 9 C18.20349988 13.39515007 18.3277078 17.78908989 18.4375 22.1875 C18.49615234 23.43337891 18.55480469 24.67925781 18.61523438 25.96289062 C18.78387889 34.94923389 18.78387889 34.94923389 16.59741211 37.88012695 C14.7845975 39.20215095 13.05842433 40.11651818 11 41 C9.61361328 41.78310547 9.61361328 41.78310547 8.19921875 42.58203125 C7.37035156 42.98808594 6.54148437 43.39414062 5.6875 43.8125 C4.84574219 44.23144531 4.00398438 44.65039062 3.13671875 45.08203125 C1 46 1 46 -1 46 C-1.1683227 30.64522908 -0.64684287 15.34015391 0 0 Z " fill="#F2F2F2" transform="translate(313,246)"/>
<path d="M0 0 C0.33 0.66 0.66 1.32 1 2 C0.67 2.66 0.34 3.32 0 4 C-0.15441209 6.10374996 -0.24992639 8.21195119 -0.31640625 10.3203125 C-0.35830078 11.57714844 -0.40019531 12.83398438 -0.44335938 14.12890625 C-0.48267578 15.44761719 -0.52199219 16.76632813 -0.5625 18.125 C-0.60569512 19.46485751 -0.64930973 20.80470156 -0.69335938 22.14453125 C-0.79970981 25.42957815 -0.90173808 28.71470281 -1 32 C-1.33 32 -1.66 32 -2 32 C-2.21724212 27.92566396 -2.41405801 23.85090319 -2.59204102 19.7746582 C-2.65544693 18.38832281 -2.72441716 17.00223022 -2.79907227 15.61645508 C-2.90544455 13.62393806 -2.99012226 11.63030018 -3.07421875 9.63671875 C-3.13182373 8.43748779 -3.18942871 7.23825684 -3.2487793 6.00268555 C-3 3 -3 3 -1.49536133 1.08520508 C-1.00189209 0.7270874 -0.50842285 0.36896973 0 0 Z " fill="#F3F3F3" transform="translate(194,148)"/>
</svg>
